<svg xmlns="http://www.w3.org/2000/svg" viewBox="0 0 480 360" width="480" height="360">
  <defs>
    <marker id="arrow" markerWidth="8" markerHeight="8" refX="6" refY="4" orient="auto">
      <path d="M0,0 L8,4 L0,8 Z" fill="#fbbf24"/>
    </marker>
    <filter id="shadow"><feDropShadow dx="1" dy="2" stdDeviation="2" flood-opacity="0.3"/></filter>
  </defs>
  <rect width="480" height="360" fill="#2d3748"/>
  
    <rect x="200" y="0" width="80" height="360" fill="#4a5568"/>
  <rect x="238" y="0" width="4" height="360" fill="#fbbf24"/>
  <rect x="248" y="0" width="2" height="360" fill="#fff" stroke-dasharray="16 12"/>
    <text x="350" y="100" fill="#22c55e" font-size="13" font-family="Arial">Len doc</text>
    <text x="80" y="280" fill="#f97316" font-size="13" font-family="Arial">Xuong doc</text>
    <path d="M240 60 L240 300" stroke="#fbbf24" stroke-width="3" marker-end="url(#arrow)"/>
    <g transform="rotate(0 230 104)" filter="url(#shadow)">
    <rect x="214" y="80" width="32" height="48" rx="6" fill="#22c55e" stroke="#1a202c" stroke-width="2"/>
    <rect x="218" y="88" width="24" height="16.799999999999997" rx="3" fill="#22c55e" opacity="0.7"/>
    <text x="230" y="74" fill="#22c55e" font-size="11" text-anchor="middle" font-family="Arial,sans-serif" font-weight="bold">Len doc</text>
  </g>
    <g transform="rotate(0 230 264)" filter="url(#shadow)">
    <rect x="214" y="240" width="32" height="48" rx="6" fill="#2563eb" stroke="#1a202c" stroke-width="2"/>
    <rect x="218" y="248" width="24" height="16.799999999999997" rx="3" fill="#2563eb" opacity="0.7"/>
    <text x="230" y="234" fill="#2563eb" font-size="11" text-anchor="middle" font-family="Arial,sans-serif" font-weight="bold">Ban</text>
  </g>
    <text x="240" y="30" fill="#e2e8f0" font-size="14" text-anchor="middle" font-family="Arial">Duong doc hep - ai nhuong?</text>
  
</svg>