<svg xmlns="http://www.w3.org/2000/svg" viewBox="0 0 480 360" width="480" height="360">
  <defs>
    <marker id="arrow" markerWidth="8" markerHeight="8" refX="6" refY="4" orient="auto">
      <path d="M0,0 L8,4 L0,8 Z" fill="#fbbf24"/>
    </marker>
    <filter id="shadow"><feDropShadow dx="1" dy="2" stdDeviation="2" flood-opacity="0.3"/></filter>
  </defs>
  <rect width="480" height="360" fill="#2d3748"/>
  
    <rect x="0" y="100" width="480" height="80" fill="#4a5568"/>
  <rect x="0" y="138" width="480" height="4" fill="#fbbf24"/>
  <rect x="0" y="148" width="480" height="2" fill="#fff" stroke-dasharray="16 12"/>
    <path d="M0 280 L140 280 L260 120" fill="none" stroke="#4a5568" stroke-width="55"/>
    <path d="M0 280 L140 280 L260 120" fill="none" stroke="#374151" stroke-width="48"/>
    <g transform="rotate(0 336 130)" filter="url(#shadow)">
    <rect x="310" y="115" width="52" height="30" rx="6" fill="#dc2626" stroke="#1a202c" stroke-width="2"/>
    <rect x="314" y="123" width="44" height="10.5" rx="3" fill="#dc2626" opacity="0.7"/>
    <text x="336" y="109" fill="#dc2626" font-size="11" text-anchor="middle" font-family="Arial,sans-serif" font-weight="bold">Lan chinh</text>
  </g>
    <g transform="rotate(0 114 279)" filter="url(#shadow)">
    <rect x="90" y="265" width="48" height="28" rx="6" fill="#2563eb" stroke="#1a202c" stroke-width="2"/>
    <rect x="94" y="273" width="40" height="9.799999999999999" rx="3" fill="#2563eb" opacity="0.7"/>
    <text x="114" y="259" fill="#2563eb" font-size="11" text-anchor="middle" font-family="Arial,sans-serif" font-weight="bold">Ban</text>
  </g>
    <path d="M114 265 Q200 200 290 130" fill="none" stroke="#2563eb" stroke-width="2" stroke-dasharray="8 5"/>
    <text x="240" y="340" fill="#e2e8f0" font-size="13" text-anchor="middle" font-family="Arial">Nhap lan cao toc</text>
  
</svg>