<svg xmlns="http://www.w3.org/2000/svg" viewBox="0 0 480 360" width="480" height="360">
  <defs>
    <marker id="arrow" markerWidth="8" markerHeight="8" refX="6" refY="4" orient="auto">
      <path d="M0,0 L8,4 L0,8 Z" fill="#fbbf24"/>
    </marker>
    <filter id="shadow"><feDropShadow dx="1" dy="2" stdDeviation="2" flood-opacity="0.3"/></filter>
  </defs>
  <rect width="480" height="360" fill="#2d3748"/>
  
    <rect x="0" y="140" width="480" height="80" fill="#4a5568"/>
  <rect x="0" y="178" width="480" height="4" fill="#fbbf24"/>
  <rect x="0" y="188" width="480" height="2" fill="#fff" stroke-dasharray="16 12"/> <rect x="200" y="0" width="80" height="360" fill="#4a5568"/>
  <rect x="238" y="0" width="4" height="360" fill="#fbbf24"/>
  <rect x="248" y="0" width="2" height="360" fill="#fff" stroke-dasharray="16 12"/>
    <rect x="192" y="30" width="16" height="50" rx="2" fill="#111"/>
    <circle cx="200" cy="45" r="8" fill="#22c55e"/>
    <circle cx="200" cy="65" r="8" fill="#374151"/>
    <circle cx="200" cy="85" r="8" fill="#374151"/>
    <g transform="rotate(0 230 284)" filter="url(#shadow)">
    <rect x="214" y="260" width="32" height="48" rx="6" fill="#2563eb" stroke="#1a202c" stroke-width="2"/>
    <rect x="218" y="268" width="24" height="16.799999999999997" rx="3" fill="#2563eb" opacity="0.7"/>
    <text x="230" y="254" fill="#2563eb" font-size="11" text-anchor="middle" font-family="Arial,sans-serif" font-weight="bold">Re trai</text>
  </g>
    <g transform="rotate(0 230 104)" filter="url(#shadow)">
    <rect x="214" y="80" width="32" height="48" rx="6" fill="#dc2626" stroke="#1a202c" stroke-width="2"/>
    <rect x="218" y="88" width="24" height="16.799999999999997" rx="3" fill="#dc2626" opacity="0.7"/>
    <text x="230" y="74" fill="#dc2626" font-size="11" text-anchor="middle" font-family="Arial,sans-serif" font-weight="bold">Di thang</text>
  </g>
    <path d="M 230 260 Q 160 220 90 170" fill="none" stroke="#2563eb" stroke-width="2" stroke-dasharray="8 5"/>
    <text x="240" y="330" fill="#e2e8f0" font-size="13" text-anchor="middle" font-family="Arial">Den xanh - re trai gap xe di thang</text>
  
</svg>