<svg xmlns="http://www.w3.org/2000/svg" viewBox="0 0 480 360" width="480" height="360">
  <defs>
    <marker id="arrow" markerWidth="8" markerHeight="8" refX="6" refY="4" orient="auto">
      <path d="M0,0 L8,4 L0,8 Z" fill="#fbbf24"/>
    </marker>
    <filter id="shadow"><feDropShadow dx="1" dy="2" stdDeviation="2" flood-opacity="0.3"/></filter>
  </defs>
  <rect width="480" height="360" fill="#2d3748"/>
  
    <rect x="0" y="140" width="480" height="80" fill="#4a5568"/>
  <rect x="0" y="178" width="480" height="4" fill="#fbbf24"/>
  <rect x="0" y="188" width="480" height="2" fill="#fff" stroke-dasharray="16 12"/>
    <rect x="190" y="145" width="10" height="70" fill="#fff"/><rect x="204" y="145" width="10" height="70" fill="#fff"/><rect x="218" y="145" width="10" height="70" fill="#fff"/><rect x="232" y="145" width="10" height="70" fill="#fff"/><rect x="246" y="145" width="10" height="70" fill="#fff"/><rect x="260" y="145" width="10" height="70" fill="#fff"/>
    <g transform="rotate(0 366 170)" filter="url(#shadow)">
    <rect x="340" y="155" width="52" height="30" rx="6" fill="#2563eb" stroke="#1a202c" stroke-width="2"/>
    <rect x="344" y="163" width="44" height="10.5" rx="3" fill="#2563eb" opacity="0.7"/>
    <text x="366" y="149" fill="#2563eb" font-size="11" text-anchor="middle" font-family="Arial,sans-serif" font-weight="bold">Ban</text>
  </g>
    <g>
      <circle cx="240" cy="168" r="9" fill="#f97316"/>
      <rect x="236" y="177" width="8" height="22" fill="#f97316"/>
      <line x1="236" y1="185" x2="225" y2="195" stroke="#f97316" stroke-width="3"/>
      <line x1="244" y1="185" x2="255" y2="195" stroke="#f97316" stroke-width="3"/>
      <line x1="240" y1="199" x2="232" y2="215" stroke="#f97316" stroke-width="3"/>
      <line x1="240" y1="199" x2="248" y2="215" stroke="#f97316" stroke-width="3"/>
    </g>
    <text x="240" y="30" fill="#e2e8f0" font-size="14" text-anchor="middle" font-family="Arial">Nguoi di bo qua vach sang duong</text>
  
</svg>