<svg xmlns="http://www.w3.org/2000/svg" viewBox="0 0 480 360" width="480" height="360">
  <defs>
    <marker id="arrow" markerWidth="8" markerHeight="8" refX="6" refY="4" orient="auto">
      <path d="M0,0 L8,4 L0,8 Z" fill="#fbbf24"/>
    </marker>
    <filter id="shadow"><feDropShadow dx="1" dy="2" stdDeviation="2" flood-opacity="0.3"/></filter>
  </defs>
  <rect width="480" height="360" fill="#2d3748"/>
  
    <rect x="0" y="155" width="480" height="80" fill="#4a5568"/>
  <rect x="0" y="193" width="480" height="4" fill="#fbbf24"/>
  <rect x="0" y="203" width="480" height="2" fill="#fff" stroke-dasharray="16 12"/> <rect x="200" y="0" width="80" height="360" fill="#4a5568"/>
  <rect x="238" y="0" width="4" height="360" fill="#fbbf24"/>
  <rect x="248" y="0" width="2" height="360" fill="#fff" stroke-dasharray="16 12"/>
    <rect x="0" y="173" width="480" height="4" fill="#fbbf24"/>
    <rect x="0" y="183" width="480" height="4" fill="#fbbf24"/>
    <polygon points="240,25 258,55 222,55" fill="#fff" stroke="#dc2626" stroke-width="2"/>
    <rect x="230" y="35" width="20" height="12" fill="#dc2626"/>
    <g transform="rotate(0 326 175)" filter="url(#shadow)">
    <rect x="300" y="160" width="52" height="30" rx="6" fill="#22c55e" stroke="#1a202c" stroke-width="2"/>
    <rect x="304" y="168" width="44" height="10.5" rx="3" fill="#22c55e" opacity="0.7"/>
    <text x="326" y="154" fill="#22c55e" font-size="11" text-anchor="middle" font-family="Arial,sans-serif" font-weight="bold">Duong uu tien</text>
  </g>
    <g transform="rotate(0 230 284)" filter="url(#shadow)">
    <rect x="214" y="260" width="32" height="48" rx="6" fill="#2563eb" stroke="#1a202c" stroke-width="2"/>
    <rect x="218" y="268" width="24" height="16.799999999999997" rx="3" fill="#2563eb" opacity="0.7"/>
    <text x="230" y="254" fill="#2563eb" font-size="11" text-anchor="middle" font-family="Arial,sans-serif" font-weight="bold">Ban (nhanh)</text>
  </g>
    <text x="240" y="340" fill="#e2e8f0" font-size="13" text-anchor="middle" font-family="Arial">Xe nhanh phai nhuong duong uu tien</text>
  
</svg>