<svg xmlns="http://www.w3.org/2000/svg" viewBox="0 0 480 360" width="480" height="360">
  <defs>
    <marker id="arrow" markerWidth="8" markerHeight="8" refX="6" refY="4" orient="auto">
      <path d="M0,0 L8,4 L0,8 Z" fill="#fbbf24"/>
    </marker>
    <filter id="shadow"><feDropShadow dx="1" dy="2" stdDeviation="2" flood-opacity="0.3"/></filter>
  </defs>
  <rect width="480" height="360" fill="#2d3748"/>
  
    <rect x="0" y="140" width="480" height="80" fill="#4a5568"/>
  <rect x="0" y="178" width="480" height="4" fill="#fbbf24"/>
  <rect x="0" y="188" width="480" height="2" fill="#fff" stroke-dasharray="16 12"/> <rect x="200" y="0" width="80" height="360" fill="#4a5568"/>
  <rect x="238" y="0" width="4" height="360" fill="#fbbf24"/>
  <rect x="248" y="0" width="2" height="360" fill="#fff" stroke-dasharray="16 12"/>
    <rect x="192" y="30" width="16" height="50" rx="2" fill="#111"/>
    <circle cx="200" cy="45" r="8" fill="#dc2626"/>
    <circle cx="200" cy="65" r="8" fill="#374151"/>
    <g transform="rotate(0 324 181)" filter="url(#shadow)">
    <rect x="300" y="165" width="48" height="32" rx="6" fill="#2563eb" stroke="#1a202c" stroke-width="2"/>
    <rect x="304" y="173" width="40" height="11.2" rx="3" fill="#2563eb" opacity="0.7"/>
    <text x="324" y="159" fill="#2563eb" font-size="11" text-anchor="middle" font-family="Arial,sans-serif" font-weight="bold">Ban</text>
  </g>
    <path d="M324 165 Q380 165 400 120" fill="none" stroke="#2563eb" stroke-width="2" stroke-dasharray="8 5"/>
    <g><rect x="190" y="145" width="10" height="70" fill="#fff"/><rect x="204" y="145" width="10" height="70" fill="#fff"/><rect x="218" y="145" width="10" height="70" fill="#fff"/><rect x="232" y="145" width="10" height="70" fill="#fff"/><rect x="246" y="145" width="10" height="70" fill="#fff"/><rect x="260" y="145" width="10" height="70" fill="#fff"/></g>
    <text x="240" y="330" fill="#e2e8f0" font-size="13" text-anchor="middle" font-family="Arial">Den do - re phai (nhuong nguoi di bo)</text>
  
</svg>