<svg xmlns="http://www.w3.org/2000/svg" viewBox="0 0 480 360" width="480" height="360">
  <defs>
    <marker id="arrow" markerWidth="8" markerHeight="8" refX="6" refY="4" orient="auto">
      <path d="M0,0 L8,4 L0,8 Z" fill="#fbbf24"/>
    </marker>
    <filter id="shadow"><feDropShadow dx="1" dy="2" stdDeviation="2" flood-opacity="0.3"/></filter>
  </defs>
  <rect width="480" height="360" fill="#2d3748"/>
  
    <rect x="0" y="140" width="480" height="80" fill="#4a5568"/>
  <rect x="0" y="178" width="480" height="4" fill="#fbbf24"/>
  <rect x="0" y="188" width="480" height="2" fill="#fff" stroke-dasharray="16 12"/> <rect x="200" y="0" width="80" height="360" fill="#4a5568"/>
  <rect x="238" y="0" width="4" height="360" fill="#fbbf24"/>
  <rect x="248" y="0" width="2" height="360" fill="#fff" stroke-dasharray="16 12"/>
    <circle cx="240" cy="180" r="55" fill="#2d3748" stroke="#22c55e" stroke-width="5"/>
    <path d="M 240 125 A 55 55 0 1 1 295 180" fill="none" stroke="#fbbf24" stroke-width="3" marker-end="url(#arrow)"/>
    <g transform="rotate(0 230 304)" filter="url(#shadow)">
    <rect x="214" y="280" width="32" height="48" rx="6" fill="#2563eb" stroke="#1a202c" stroke-width="2"/>
    <rect x="218" y="288" width="24" height="16.799999999999997" rx="3" fill="#2563eb" opacity="0.7"/>
    <text x="230" y="274" fill="#2563eb" font-size="11" text-anchor="middle" font-family="Arial,sans-serif" font-weight="bold">Ban</text>
  </g>
    <g transform="rotate(15 241 179)" filter="url(#shadow)">
    <rect x="225" y="155" width="32" height="48" rx="6" fill="#dc2626" stroke="#1a202c" stroke-width="2"/>
    <rect x="229" y="163" width="24" height="16.799999999999997" rx="3" fill="#dc2626" opacity="0.7"/>
    <text x="241" y="149" fill="#dc2626" font-size="11" text-anchor="middle" font-family="Arial,sans-serif" font-weight="bold">Trong vong</text>
  </g>
    <text x="240" y="30" fill="#e2e8f0" font-size="14" text-anchor="middle" font-family="Arial">Bung binh - xe trong vong uu tien</text>
  
</svg>