<svg xmlns="http://www.w3.org/2000/svg" viewBox="0 0 480 360" width="480" height="360">
  <defs>
    <marker id="arrow" markerWidth="8" markerHeight="8" refX="6" refY="4" orient="auto">
      <path d="M0,0 L8,4 L0,8 Z" fill="#fbbf24"/>
    </marker>
    <filter id="shadow"><feDropShadow dx="1" dy="2" stdDeviation="2" flood-opacity="0.3"/></filter>
  </defs>
  <rect width="480" height="360" fill="#2d3748"/>
  
    <rect x="0" y="140" width="480" height="80" fill="#4a5568"/>
  <rect x="0" y="178" width="480" height="4" fill="#fbbf24"/>
  <rect x="0" y="188" width="480" height="2" fill="#fff" stroke-dasharray="16 12"/>
    <polygon points="70,50 110,50 110,95 90,115 70,95" fill="#fbbf24" stroke="#000"/>
    <text x="90" y="82" fill="#000" font-size="22" text-anchor="middle">S</text>
    <g>
      <circle cx="230" cy="172" r="8" fill="#f97316"/>
      <rect x="227" y="180" width="6" height="18" fill="#f97316"/>
      <circle cx="250" cy="175" r="7" fill="#f97316"/>
      <rect x="247" y="182" width="6" height="16" fill="#f97316"/>
    </g>
    <g transform="rotate(0 366 170)" filter="url(#shadow)">
    <rect x="340" y="155" width="52" height="30" rx="6" fill="#2563eb" stroke="#1a202c" stroke-width="2"/>
    <rect x="344" y="163" width="44" height="10.5" rx="3" fill="#2563eb" opacity="0.7"/>
    <text x="366" y="149" fill="#2563eb" font-size="11" text-anchor="middle" font-family="Arial,sans-serif" font-weight="bold">Ban</text>
  </g>
    <text x="240" y="30" fill="#e2e8f0" font-size="14" text-anchor="middle" font-family="Arial">Khu vuc truong hoc</text>
  
</svg>